<svg viewBox="0 0 207 117" xmlns="http://www.w3.org/2000/svg" xmlns:xlink="http://www.w3.org/1999/xlink" id="Logos-Export" overflow="hidden"><defs><linearGradient x1="172.37" y1="99" x2="202.02" y2="99" gradientUnits="userSpaceOnUse" id="linear-gradient"><stop offset="0" stop-color="#F18F9A"/><stop offset="1" stop-color="#ED6A79"/></linearGradient><linearGradient x1="4.98" y1="72" x2="94.02" y2="72" gradientUnits="userSpaceOnUse" id="linear-gradient-2"><stop offset="0" stop-color="#202042"/><stop offset="0.2" stop-color="#302F5C"/><stop offset="0.55" stop-color="#494783"/><stop offset="0.83" stop-color="#59559C"/><stop offset="1" stop-color="#5F5BA5"/></linearGradient><linearGradient x1="58.98" y1="95.87" x2="94.02" y2="95.87" gradientUnits="userSpaceOnUse" id="linear-gradient-3"><stop offset="0" stop-color="#202042"/><stop offset="0.15" stop-color="#272853"/><stop offset="0.52" stop-color="#393C7A"/><stop offset="0.82" stop-color="#444993"/><stop offset="1" stop-color="#484E9C"/></linearGradient><linearGradient x1="148.02" y1="72" x2="193.02" y2="72" xlink:href="#linear-gradient-2" id="linear-gradient-4"></linearGradient><linearGradient x1="94.02" y1="40.46" x2="148.02" y2="40.46" xlink:href="#linear-gradient-2" id="linear-gradient-5"></linearGradient><linearGradient x1="85.98" y1="82.81" x2="148.02" y2="82.81" xlink:href="#linear-gradient-2" id="linear-gradient-6"></linearGradient></defs><path d="M173.69 106.15 194.34 85.5C197.17 82.67 202.01 84.67 202.01 88.68L202.01 109.33C202.01 111.81 200 113.82 197.52 113.82L176.87 113.82C172.87 113.82 170.86 108.98 173.69 106.15Z" fill="url(#linear-gradient)"/><path d="M5.18 112.66 86.35 31.5C89.18 28.67 94.02 30.67 94.02 34.68L94.02 50.46C94.02 50.7 93.93 50.92 93.76 51.09L31.92 112.92C31.34 113.5 30.55 113.83 29.73 113.83L5.66 113.83C5.05 113.83 4.75 113.1 5.18 112.67Z" fill="url(#linear-gradient-2)"/><path d="M59.18 112.66 93.92 77.92C93.92 77.92 94.02 77.91 94.02 77.96L94.02 113.14C94.02 113.52 93.71 113.82 93.34 113.82L59.66 113.82C59.05 113.82 58.75 113.09 59.18 112.66Z" fill="url(#linear-gradient-3)"/><path d="M185.35 40.5 148.02 77.83 148.02 104.83 192.82 60.03C192.95 59.9 193.02 59.73 193.02 59.55L193.02 43.68C193.02 39.68 188.18 37.67 185.35 40.5Z" fill="url(#linear-gradient-4)"/><path d="M94.28 50.56 140.35 4.5C143.18 1.67 148.02 3.67 148.02 7.68L148.02 22.55C148.02 23.37 147.69 24.16 147.11 24.74L94.11 77.74C94.11 77.74 94.01 77.75 94.01 77.7L94.01 51.2C94.01 50.96 94.1 50.74 94.27 50.57Z" fill="url(#linear-gradient-5)"/><path d="M86.18 112.66 146.85 51.99C147.28 51.56 148.01 51.86 148.01 52.47L148.01 113.14C148.01 113.52 147.7 113.82 147.33 113.82L86.66 113.82C86.05 113.82 85.75 113.09 86.18 112.66Z" fill="url(#linear-gradient-6)"/></svg>